<mxfile host="Electron" modified="2024-03-29T09:38:56.044Z" agent="Mozilla/5.0 (Windows NT 10.0; Win64; x64) AppleWebKit/537.36 (KHTML, like Gecko) draw.io/24.1.0 Chrome/120.0.6099.109 Electron/28.1.0 Safari/537.36" etag="wYwqnf1BzPBfGeLWcYQv" version="24.1.0" type="device">
  <diagram name="Сторінка-1" id="xNuX0fLDY9kkAoU1iqvL">
    <mxGraphModel dx="1562" dy="957" grid="1" gridSize="10" guides="1" tooltips="1" connect="1" arrows="1" fold="1" page="1" pageScale="1" pageWidth="827" pageHeight="1169" math="0" shadow="0">
      <root>
        <mxCell id="0" />
        <mxCell id="1" parent="0" />
        <mxCell id="yM8Tq4fXj_fgESCg39oE-15" style="edgeStyle=orthogonalEdgeStyle;rounded=0;orthogonalLoop=1;jettySize=auto;html=1;exitX=0.5;exitY=1;exitDx=0;exitDy=0;entryX=0.5;entryY=0;entryDx=0;entryDy=0;" edge="1" parent="1" source="yM8Tq4fXj_fgESCg39oE-1" target="yM8Tq4fXj_fgESCg39oE-2">
          <mxGeometry relative="1" as="geometry" />
        </mxCell>
        <mxCell id="yM8Tq4fXj_fgESCg39oE-1" value="&lt;font style=&quot;font-size: 20px;&quot;&gt;Client&lt;/font&gt;" style="rounded=0;whiteSpace=wrap;html=1;fillColor=#008a00;fontColor=#ffffff;strokeColor=#005700;" vertex="1" parent="1">
          <mxGeometry x="340" y="60" width="120" height="60" as="geometry" />
        </mxCell>
        <mxCell id="yM8Tq4fXj_fgESCg39oE-16" style="edgeStyle=orthogonalEdgeStyle;rounded=0;orthogonalLoop=1;jettySize=auto;html=1;exitX=1;exitY=0.5;exitDx=0;exitDy=0;entryX=0.5;entryY=0;entryDx=0;entryDy=0;curved=1;" edge="1" parent="1" source="yM8Tq4fXj_fgESCg39oE-2" target="yM8Tq4fXj_fgESCg39oE-3">
          <mxGeometry relative="1" as="geometry" />
        </mxCell>
        <mxCell id="yM8Tq4fXj_fgESCg39oE-17" style="edgeStyle=orthogonalEdgeStyle;rounded=0;orthogonalLoop=1;jettySize=auto;html=1;exitX=0;exitY=0.5;exitDx=0;exitDy=0;entryX=0.5;entryY=0;entryDx=0;entryDy=0;curved=1;" edge="1" parent="1" source="yM8Tq4fXj_fgESCg39oE-2" target="yM8Tq4fXj_fgESCg39oE-4">
          <mxGeometry relative="1" as="geometry" />
        </mxCell>
        <mxCell id="yM8Tq4fXj_fgESCg39oE-2" value="&lt;font style=&quot;font-size: 20px;&quot;&gt;Web Server&lt;/font&gt;" style="rounded=0;whiteSpace=wrap;html=1;fillColor=#f0a30a;fontColor=#000000;strokeColor=#BD7000;" vertex="1" parent="1">
          <mxGeometry x="340" y="160" width="120" height="60" as="geometry" />
        </mxCell>
        <mxCell id="yM8Tq4fXj_fgESCg39oE-29" style="edgeStyle=orthogonalEdgeStyle;rounded=0;orthogonalLoop=1;jettySize=auto;html=1;exitX=0.5;exitY=1;exitDx=0;exitDy=0;entryX=0.5;entryY=0;entryDx=0;entryDy=0;" edge="1" parent="1" source="yM8Tq4fXj_fgESCg39oE-3" target="yM8Tq4fXj_fgESCg39oE-8">
          <mxGeometry relative="1" as="geometry" />
        </mxCell>
        <mxCell id="yM8Tq4fXj_fgESCg39oE-3" value="&lt;font style=&quot;font-size: 20px;&quot;&gt;Read API&lt;/font&gt;" style="rounded=0;whiteSpace=wrap;html=1;fillColor=#e3c800;fontColor=#000000;strokeColor=#B09500;" vertex="1" parent="1">
          <mxGeometry x="460" y="260" width="120" height="60" as="geometry" />
        </mxCell>
        <mxCell id="yM8Tq4fXj_fgESCg39oE-18" style="edgeStyle=orthogonalEdgeStyle;rounded=0;orthogonalLoop=1;jettySize=auto;html=1;exitX=0.75;exitY=1;exitDx=0;exitDy=0;entryX=0.5;entryY=0;entryDx=0;entryDy=0;curved=1;" edge="1" parent="1" source="yM8Tq4fXj_fgESCg39oE-4" target="yM8Tq4fXj_fgESCg39oE-6">
          <mxGeometry relative="1" as="geometry" />
        </mxCell>
        <mxCell id="yM8Tq4fXj_fgESCg39oE-36" style="edgeStyle=orthogonalEdgeStyle;rounded=0;orthogonalLoop=1;jettySize=auto;html=1;exitX=0.25;exitY=1;exitDx=0;exitDy=0;entryX=0.5;entryY=0;entryDx=0;entryDy=0;curved=1;" edge="1" parent="1" source="yM8Tq4fXj_fgESCg39oE-4" target="yM8Tq4fXj_fgESCg39oE-34">
          <mxGeometry relative="1" as="geometry" />
        </mxCell>
        <mxCell id="yM8Tq4fXj_fgESCg39oE-4" value="&lt;font style=&quot;font-size: 20px;&quot;&gt;Write API&lt;/font&gt;" style="rounded=0;whiteSpace=wrap;html=1;fillColor=#e3c800;fontColor=#000000;strokeColor=#B09500;" vertex="1" parent="1">
          <mxGeometry x="150" y="260" width="120" height="60" as="geometry" />
        </mxCell>
        <mxCell id="yM8Tq4fXj_fgESCg39oE-38" style="edgeStyle=orthogonalEdgeStyle;rounded=0;orthogonalLoop=1;jettySize=auto;html=1;exitX=0;exitY=0.5;exitDx=0;exitDy=0;entryX=0.5;entryY=0;entryDx=0;entryDy=0;curved=1;" edge="1" parent="1" source="yM8Tq4fXj_fgESCg39oE-6" target="yM8Tq4fXj_fgESCg39oE-7">
          <mxGeometry relative="1" as="geometry" />
        </mxCell>
        <mxCell id="yM8Tq4fXj_fgESCg39oE-6" value="&lt;font style=&quot;font-size: 20px;&quot;&gt;Post Service&lt;/font&gt;" style="rounded=0;whiteSpace=wrap;html=1;fillColor=#e3c800;fontColor=#000000;strokeColor=#B09500;" vertex="1" parent="1">
          <mxGeometry x="250" y="360" width="120" height="60" as="geometry" />
        </mxCell>
        <mxCell id="yM8Tq4fXj_fgESCg39oE-7" value="&lt;font style=&quot;font-size: 20px;&quot;&gt;User Service&lt;/font&gt;" style="rounded=0;whiteSpace=wrap;html=1;fillColor=#e3c800;fontColor=#000000;strokeColor=#B09500;" vertex="1" parent="1">
          <mxGeometry x="150" y="470" width="120" height="60" as="geometry" />
        </mxCell>
        <mxCell id="yM8Tq4fXj_fgESCg39oE-28" style="edgeStyle=orthogonalEdgeStyle;rounded=0;orthogonalLoop=1;jettySize=auto;html=1;exitX=0.25;exitY=1;exitDx=0;exitDy=0;entryX=0.75;entryY=0;entryDx=0;entryDy=0;curved=1;" edge="1" parent="1" source="yM8Tq4fXj_fgESCg39oE-8" target="yM8Tq4fXj_fgESCg39oE-12">
          <mxGeometry relative="1" as="geometry" />
        </mxCell>
        <mxCell id="yM8Tq4fXj_fgESCg39oE-8" value="&lt;font style=&quot;font-size: 20px;&quot;&gt;Feed Service&lt;/font&gt;" style="rounded=0;whiteSpace=wrap;html=1;fillColor=#e3c800;fontColor=#000000;strokeColor=#B09500;" vertex="1" parent="1">
          <mxGeometry x="460" y="360" width="120" height="60" as="geometry" />
        </mxCell>
        <mxCell id="yM8Tq4fXj_fgESCg39oE-9" value="&lt;font style=&quot;font-size: 20px;&quot;&gt;Main Storage&lt;/font&gt;" style="shape=cylinder3;whiteSpace=wrap;html=1;boundedLbl=1;backgroundOutline=1;size=15;" vertex="1" parent="1">
          <mxGeometry x="140" y="580" width="100" height="100" as="geometry" />
        </mxCell>
        <mxCell id="yM8Tq4fXj_fgESCg39oE-10" value="&lt;font style=&quot;font-size: 20px;&quot;&gt;Object Store&lt;/font&gt;" style="shape=cylinder3;whiteSpace=wrap;html=1;boundedLbl=1;backgroundOutline=1;size=15;" vertex="1" parent="1">
          <mxGeometry x="560" y="570" width="100" height="100" as="geometry" />
        </mxCell>
        <mxCell id="yM8Tq4fXj_fgESCg39oE-12" value="&lt;font style=&quot;font-size: 20px;&quot;&gt;Feed Cache&lt;/font&gt;" style="rounded=0;whiteSpace=wrap;html=1;fillColor=#76608a;fontColor=#ffffff;strokeColor=#432D57;" vertex="1" parent="1">
          <mxGeometry x="340" y="480" width="120" height="60" as="geometry" />
        </mxCell>
        <mxCell id="yM8Tq4fXj_fgESCg39oE-26" value="" style="endArrow=classic;html=1;rounded=0;exitX=0.5;exitY=1;exitDx=0;exitDy=0;entryX=0.25;entryY=0;entryDx=0;entryDy=0;edgeStyle=orthogonalEdgeStyle;curved=1;" edge="1" parent="1" source="yM8Tq4fXj_fgESCg39oE-6" target="yM8Tq4fXj_fgESCg39oE-12">
          <mxGeometry width="50" height="50" relative="1" as="geometry">
            <mxPoint x="620" y="380" as="sourcePoint" />
            <mxPoint x="670" y="330" as="targetPoint" />
          </mxGeometry>
        </mxCell>
        <mxCell id="yM8Tq4fXj_fgESCg39oE-34" value="&lt;font style=&quot;font-size: 20px;&quot;&gt;Reaction Service&lt;/font&gt;" style="rounded=0;whiteSpace=wrap;html=1;fillColor=#e3c800;fontColor=#000000;strokeColor=#B09500;" vertex="1" parent="1">
          <mxGeometry x="50" y="360" width="120" height="60" as="geometry" />
        </mxCell>
        <mxCell id="yM8Tq4fXj_fgESCg39oE-37" style="edgeStyle=orthogonalEdgeStyle;rounded=0;orthogonalLoop=1;jettySize=auto;html=1;exitX=0.25;exitY=1;exitDx=0;exitDy=0;entryX=0;entryY=0.5;entryDx=0;entryDy=0;entryPerimeter=0;curved=1;" edge="1" parent="1" source="yM8Tq4fXj_fgESCg39oE-34" target="yM8Tq4fXj_fgESCg39oE-9">
          <mxGeometry relative="1" as="geometry" />
        </mxCell>
        <mxCell id="yM8Tq4fXj_fgESCg39oE-39" style="edgeStyle=orthogonalEdgeStyle;rounded=0;orthogonalLoop=1;jettySize=auto;html=1;exitX=0.5;exitY=1;exitDx=0;exitDy=0;entryX=0.5;entryY=0;entryDx=0;entryDy=0;entryPerimeter=0;curved=1;" edge="1" parent="1" source="yM8Tq4fXj_fgESCg39oE-7" target="yM8Tq4fXj_fgESCg39oE-9">
          <mxGeometry relative="1" as="geometry" />
        </mxCell>
        <mxCell id="yM8Tq4fXj_fgESCg39oE-41" style="edgeStyle=orthogonalEdgeStyle;rounded=0;orthogonalLoop=1;jettySize=auto;html=1;exitX=0.75;exitY=1;exitDx=0;exitDy=0;entryX=1;entryY=0;entryDx=0;entryDy=67.5;entryPerimeter=0;curved=1;" edge="1" parent="1" source="yM8Tq4fXj_fgESCg39oE-8" target="yM8Tq4fXj_fgESCg39oE-9">
          <mxGeometry relative="1" as="geometry" />
        </mxCell>
        <mxCell id="yM8Tq4fXj_fgESCg39oE-42" style="edgeStyle=orthogonalEdgeStyle;rounded=0;orthogonalLoop=1;jettySize=auto;html=1;exitX=1;exitY=0.75;exitDx=0;exitDy=0;entryX=0.5;entryY=0;entryDx=0;entryDy=0;entryPerimeter=0;curved=1;" edge="1" parent="1" source="yM8Tq4fXj_fgESCg39oE-6" target="yM8Tq4fXj_fgESCg39oE-10">
          <mxGeometry relative="1" as="geometry">
            <Array as="points">
              <mxPoint x="410" y="405" />
              <mxPoint x="410" y="460" />
              <mxPoint x="610" y="460" />
            </Array>
          </mxGeometry>
        </mxCell>
      </root>
    </mxGraphModel>
  </diagram>
</mxfile>
